<?xml version="1.0" encoding="UTF-8" standalone="no"?>
<!-- Generator: Adobe Illustrator 19.0.0, SVG Export Plug-In . SVG Version: 6.00 Build 0)  -->

<svg
   xmlns:dc="http://purl.org/dc/elements/1.1/"
   xmlns:cc="http://creativecommons.org/ns#"
   xmlns:rdf="http://www.w3.org/1999/02/22-rdf-syntax-ns#"
   xmlns:svg="http://www.w3.org/2000/svg"
   xmlns="http://www.w3.org/2000/svg"
   xmlns:sodipodi="http://sodipodi.sourceforge.net/DTD/sodipodi-0.dtd"
   xmlns:inkscape="http://www.inkscape.org/namespaces/inkscape"
   version="1.1"
   id="Layer_1"
   x="0px"
   y="0px"
   viewBox="0 0 496.2 496.2"
   style="enable-background:new 0 0 496.2 496.2;"
   xml:space="preserve"
   sodipodi:docname="max.svg"
   inkscape:version="0.92.4 (5da689c313, 2019-01-14)"><metadata
   id="metadata85"><rdf:RDF><cc:Work
       rdf:about=""><dc:format>image/svg+xml</dc:format><dc:type
         rdf:resource="http://purl.org/dc/dcmitype/StillImage" /></cc:Work></rdf:RDF></metadata><defs
   id="defs83" /><sodipodi:namedview
   pagecolor="#ffffff"
   bordercolor="#666666"
   borderopacity="1"
   objecttolerance="10"
   gridtolerance="10"
   guidetolerance="10"
   inkscape:pageopacity="0"
   inkscape:pageshadow="2"
   inkscape:window-width="1920"
   inkscape:window-height="1017"
   id="namedview81"
   showgrid="false"
   inkscape:zoom="0.47561466"
   inkscape:cx="248.10001"
   inkscape:cy="248.10001"
   inkscape:window-x="-8"
   inkscape:window-y="-1"
   inkscape:window-maximized="1"
   inkscape:current-layer="Layer_1" />
<path
   style="fill:#337180;"
   d="M496.2,248.1C496.2,111.1,385.1,0,248.1,0S0,111.1,0,248.1s111.1,248.1,248.1,248.1  S496.2,385.1,496.2,248.1z"
   id="path2" />
<path
   style="fill:#E2A379;"
   d="M287,282.1h-77.8c12.1,36.6,1,53.3,1,53.3l26.9,6.1h22l26.9-6.1C286,335.4,274.9,318.7,287,282.1z"
   id="path4" />
<path
   style="fill:#9AE8F4;"
   d="M248.1,496.2c70.2,0,133.6-29.2,178.7-76c-2.8-15.1-5.6-28.9-8.3-37.4  c-8.5-27.3-81.2-49.3-170.8-49.3s-161.5,22-170,49.3c-2.6,8.5-5.5,22.2-8.3,37.4C114.5,467,177.9,496.2,248.1,496.2z"
   id="path6" />
<rect
   x="140.3"
   y="433.6"
   style="fill:#7AC6CE;"
   width="63"
   height="10.5"
   id="rect8" />
<path
   style="fill:#E2A379;"
   d="M210.2,335.4c0,0-14.8,28.4,37.6,28.4s38.2-28.4,38.2-28.4L247.8,317L210.2,335.4z"
   id="path10" />
<g
   id="g16">
	<polygon
   style="fill:#019897;"
   points="305.8,337.8 287.9,322.3 248.1,363.9 284.7,374.1  "
   id="polygon12" />
	<polygon
   style="fill:#019897;"
   points="190.4,337.8 208.3,322.3 248.1,363.9 211.5,374.1  "
   id="polygon14" />
</g>
<path
   style="fill:#F4B382;"
   d="M336.4,175.2c0-92.4-39.5-113.6-88.3-113.6c-48.7,0-88.3,21.2-88.3,113.6c0,31.3,6.2,55.8,15.5,74.7  c20.4,41.6,55.7,56.1,72.8,56.1s52.4-14.5,72.8-56.1C330.2,231,336.4,206.5,336.4,175.2z"
   id="path18" />
<g
   id="g32">
	<path
   style="fill:#3A1D12;"
   d="M336.4,175.2c0-92.4-30.3-116.1-88.3-116.1s-88.3,23.7-88.3,116.1l39.8-53.1c0,0,26.5,20,48.5,20   s46.2-20,46.2-20L336.4,175.2z"
   id="path20" />
	<path
   style="fill:#3A1D12;"
   d="M165.5,140.8c-4.2,10.9-5.6,24.4-5.6,37.5c0,0,8.8-1.9,8.8,2.6l2.8,27.6l3.9-1.9   c-0.2-23,4.9-68,4.9-68L165.5,140.8z"
   id="path22" />
	<path
   style="fill:#3A1D12;"
   d="M330.8,140.8c4.2,10.9,5.6,24.4,5.6,37.5c0,0-8.8-1.9-8.8,2.6l-2.8,27.6l-3.9-1.9   c0.2-23-4.9-66.2-4.9-66.2L330.8,140.8z"
   id="path24" />
	<polygon
   style="fill:#3A1D12;"
   points="225.4,135.3 225.4,165.3 276.4,133.8  "
   id="polygon26" />
	<polygon
   style="fill:#3A1D12;"
   points="209.9,126.8 209.9,156.8 260.9,125.3  "
   id="polygon28" />
	<polygon
   style="fill:#3A1D12;"
   points="194.4,120.3 194.4,150.3 245.4,118.8  "
   id="polygon30" />
</g>
<g
   id="g38">
	<path
   style="fill:#F4B382;"
   d="M170.4,238.7c-8.4,1.4-14.4,0.1-19.1-27.7s1.7-31.5,10.1-32.9L170.4,238.7z"
   id="path34" />
	<path
   style="fill:#F4B382;"
   d="M325.9,238.7c8.4,1.4,14.3,0.1,19.1-27.7c4.8-27.8-1.7-31.5-10.1-32.9L325.9,238.7z"
   id="path36" />
</g>
<g
   id="g46">
	<path
   style="fill:#E4F0F2;"
   d="M311.3,209.8c-0.3,0-0.6-0.1-0.8-0.2c-1-0.5-1.4-1.7-1-2.7l15-32.3c0.5-1,1.7-1.4,2.7-1   c1,0.5,1.4,1.7,1,2.7l-15,32.3C312.8,209.3,312.1,209.8,311.3,209.8z"
   id="path40" />
	<path
   style="fill:#E4F0F2;"
   d="M184.9,209.8c-0.8,0-1.5-0.4-1.8-1.2l-15-32.3c-0.5-1,0-2.2,1-2.7s2.2,0,2.7,1l15,32.3   c0.5,1,0,2.2-1,2.7C185.4,209.7,185.1,209.8,184.9,209.8z"
   id="path42" />
	<path
   style="fill:#E4F0F2;"
   d="M320.9,249.9l-5.8-44.5l-67-10.3l-67,10.2l-5.8,44.5l0,0c20.4,41.6,55.7,56.1,72.8,56.1   S300.5,291.5,320.9,249.9L320.9,249.9z"
   id="path44" />
</g>

<g
   id="g50">
</g>
<g
   id="g52">
</g>
<g
   id="g54">
</g>
<g
   id="g56">
</g>
<g
   id="g58">
</g>
<g
   id="g60">
</g>
<g
   id="g62">
</g>
<g
   id="g64">
</g>
<g
   id="g66">
</g>
<g
   id="g68">
</g>
<g
   id="g70">
</g>
<g
   id="g72">
</g>
<g
   id="g74">
</g>
<g
   id="g76">
</g>
<g
   id="g78">
</g>
</svg>